<?xml version="1.0" standalone="no"?>
<!DOCTYPE svg PUBLIC "-//W3C//DTD SVG 1.1//EN" "http://www.w3.org/Graphics/SVG/1.1/DTD/svg11.dtd" >
<svg xmlns="http://www.w3.org/2000/svg">
<metadata></metadata>
<defs>
<font id="mona_lisa_solid_itc_ttregular" horiz-adv-x="948" >
<font-face units-per-em="2048" ascent="1638" descent="-410" />
<missing-glyph horiz-adv-x="364" />
<glyph horiz-adv-x="2048" />
<glyph horiz-adv-x="2048" />
<glyph unicode="&#xd;" horiz-adv-x="364" />
<glyph unicode=" "  horiz-adv-x="364" />
<glyph unicode="&#x09;" horiz-adv-x="364" />
<glyph unicode="&#xa0;" horiz-adv-x="364" />
<glyph unicode="!" horiz-adv-x="645" d="M113 1552v33h331l-69 -1098h-78l-84 1065h-100zM195 106q0 51 37.5 88t91.5 37q49 0 85.5 -38t36.5 -89t-35.5 -87.5t-88.5 -36.5t-90 36.5t-37 89.5z" />
<glyph unicode="&#x22;" d="M324 1618h108q-31 -164 -31 -401v-41h-47v41q0 213 -30 401zM514 1618h109q-31 -164 -31 -401v-41h-47v41q0 242 -31 401z" />
<glyph unicode="#" d="M41 477l20 53h222l71 189h-221l21 53h221l88 229h61l-88 -229h195l88 229h59l-86 -229h217l-20 -53h-219l-70 -189h217l-20 -53h-217l-91 -233h-59l88 233h-194l-91 -233h-59l90 233h-223zM344 530h195l71 189h-194z" />
<glyph unicode="$" d="M29 1198q0 227 188 369q76 57 207 78v221h33v-219q10 2 20 2q14 0 47 -4v221h33v-224q172 -23 258 -69l-2 82h31l10 -373h-31v102q-37 55 -114.5 112.5t-151.5 84.5v-752q180 -121 259 -232.5t79 -244.5q0 -143 -93 -245.5t-245 -126.5v-220h-33v215q-14 -2 -35 -2 q-20 0 -32 2v-215h-33v217q-102 4 -262 76v-127h-33v404h33v-109q27 -57 110.5 -121.5t151.5 -83.5v631q-223 160 -309 280t-86 271zM190 1317q0 -119 52.5 -206t181.5 -181v678q-92 -8 -137 -39q-96 -68 -97 -252zM457 10q14 -2 32 -2q21 0 35 2v559l-67 52v-611zM457 905 l67 -51v737q-23 8 -67 15v-701zM557 16q158 35 158 236q0 162 -158 291v-527z" />
<glyph unicode="%" horiz-adv-x="1099" d="M16 1194q0 147 117 242q84 68 203 67q139 0 232.5 -88t93.5 -219q0 -133 -91.5 -221t-228.5 -88q-139 0 -232.5 88t-93.5 219zM29 -31l1007 1610l37 -27l-1005 -1609zM205 1184q0 -160 18 -201q29 -63 111 -63q76 0 106 55q27 47 27 203q0 178 -25.5 235t-105.5 57 q-78 0 -104.5 -57t-26.5 -229zM428 291q0 147 119 244q84 68 203 67q139 0 232 -88t93 -221t-91 -221t-228 -88q-141 0 -234.5 87t-93.5 220zM616 279q0 -156 19 -199q27 -63 110 -64q80 0 108 53.5t28 209.5q0 174 -27 232t-104 58q-80 0 -107 -58t-27 -232z" />
<glyph unicode="&#x26;" d="M92 260q0 100 56.5 177t189.5 155q-94 147 -94 252q0 98 62.5 158.5t164.5 60.5q96 0 161.5 -55.5t65.5 -137.5q0 -63 -48 -127.5t-126 -101.5l172 -293q27 63 37 178h148v-30q-61 -8 -93 -41t-59 -113l-10 -31l162 -278h84v-33h-283l-70 119q-70 -78 -118 -106.5 t-113 -28.5q-125 0 -207 78.5t-82 197.5zM289 227q0 -115 25.5 -162t86.5 -47q97 0 197 127l-246 416q-49 -49 -59 -160q-4 -35 -4 -174zM387 946q0 -55 70 -180l53 -96q100 49 100 184q0 74 -39 125t-92 51q-37 0 -64.5 -25.5t-27.5 -58.5z" />
<glyph unicode="'" horiz-adv-x="645" d="M268 1618h109q-31 -164 -31 -401v-41h-47v41q0 213 -31 401z" />
<glyph unicode="(" horiz-adv-x="493" d="M158 670q0 518 202 977h60q-94 -219 -148.5 -483.5t-54.5 -493.5q0 -494 203 -977h-60q-203 469 -202 977z" />
<glyph unicode=")" horiz-adv-x="493" d="M74 -307q203 485 202 977q0 502 -202 977h59q203 -463 203 -977q0 -500 -203 -977h-59z" />
<glyph unicode="*" d="M172 1372l37 92q94 -68 221 -114l23 -9v37q0 137 -27 240h98q-27 -106 -26 -246v-31l20 7q131 39 223 118l35 -94q-57 -6 -92 -14q-61 -12 -154 -47l-22 -8l10 -17q72 -115 166 -201l-84 -53q-35 106 -119 232l-8 12l-8 -12q-86 -129 -117 -234l-84 55q66 57 164 203 l10 12l-22 9q-150 55 -244 63z" />
<glyph unicode="+" d="M63 522v56h383v380h56v-380h381v-56h-381v-383h-56v383h-383z" />
<glyph unicode="," horiz-adv-x="378" d="M59 106q0 53 35 89t88 36q55 0 94 -41t39 -98q0 -90 -64.5 -160.5t-146.5 -70.5q-16 0 -43 8q100 20 138 119h-17q-53 0 -88 33.5t-35 84.5z" />
<glyph unicode="-" horiz-adv-x="681" d="M41 274v56h600v-56h-600z" />
<glyph unicode="." horiz-adv-x="378" d="M63 106q0 51 37 88t90 37q51 0 88 -38t37 -89t-37.5 -87.5t-89.5 -36.5q-51 0 -88 36.5t-37 89.5z" />
<glyph unicode="/" horiz-adv-x="888" d="M-27 -307l789 1954h57l-788 -1954h-58z" />
<glyph unicode="0" d="M63 586q0 287 112 465t292 178t298 -182t118 -463q0 -262 -116 -431t-296 -169q-178 0 -293 169t-115 433zM285 725q0 -360 16 -516q20 -190 168 -191q129 0 158 121q24 100 24 422q0 479 -59 567q-45 66 -137 66q-113 0 -146 -111q-25 -82 -24 -358z" />
<glyph unicode="1" horiz-adv-x="645" d="M14 926q279 188 518 389l19 -27l-84 -74v-1181h125v-33h-479v33h145v1024l-231 -160z" />
<glyph unicode="2" horiz-adv-x="872" d="M53 0v23q12 8 97 69q299 219 358 344q63 135 63 400q0 195 -41 277.5t-135 82.5q-117 0 -188.5 -84t-71.5 -221q0 -88 38 -142.5t99 -54.5q100 0 123 113l25 -12q-27 -135 -152 -136q-88 0 -149.5 67t-61.5 163q0 143 103.5 242.5t249.5 99.5q156 0 266 -106.5 t110 -258.5q0 -258 -251 -501q-115 -111 -410 -332h74q307 0 530 78l2 82h33l-12 -265h-31v62q-70 10 -301 10h-367z" />
<glyph unicode="3" horiz-adv-x="835" d="M39 -33v297h33v-78q53 -76 137 -122t170 -46q88 0 123 79t35 282q0 170 -36 227.5t-143 57.5q-63 0 -129 -15v-86h-32v248h32v-84q55 -33 144 -33q84 0 114.5 48.5t30.5 183.5q0 147 -32.5 207.5t-112.5 60.5q-70 0 -144.5 -42t-122.5 -110v-77h-32v286h32v-77 q113 55 238 55q158 0 269.5 -87t111.5 -210q0 -176 -246 -250q131 -39 205 -131t74 -213q0 -147 -114 -250.5t-277 -103.5q-104 0 -295 71v-88h-33z" />
<glyph unicode="4" d="M39 322q139 164 287 380l428 631l26 -18l-69 -109v-848h26q59 0 107 31v68h33v-242h-33v86q-45 23 -107 23h-26v-291h133v-33h-498v33h160v289h-105q-252 0 -352 -21zM193 358h313v545q-193 -299 -313 -545z" />
<glyph unicode="5" horiz-adv-x="909" d="M63 293h33v-90q133 -184 312 -185q92 0 138 74t46 324q0 209 -38 281.5t-144 72.5q-174 0 -318 -162l-22 21q203 276 348 608q106 -57 225 -57q88 0 166 39l14 -21l-49 -53q-31 -33 -63.5 -41t-132.5 -8q-96 0 -181 18q-23 -39 -75 -139q-6 -10 -99 -174l-35 -62 q113 66 234 66q119 0 213 -72q166 -125 166 -327q0 -180 -119 -301t-295 -121q-160 0 -285 90v-90h-30z" />
<glyph unicode="6" d="M94 578q0 295 115 473t307 178q113 0 215 -47v65h31l8 -276h-33v84q-106 139 -243 139q-150 0 -177 -176q-16 -109 -16 -473q0 -375 29 -443q35 -84 172 -84q102 0 136 74t34 303q0 242 -35 301q-29 47 -98 47q-59 0 -100.5 -26.5t-98.5 -104.5l-27 21q57 82 109.5 113.5 t130.5 31.5q137 0 231.5 -109.5t94.5 -271.5q0 -172 -112 -292.5t-269 -120.5q-184 0 -294 160.5t-110 433.5z" />
<glyph unicode="7" horiz-adv-x="720" d="M-25 963l35 319h33l-4 -55q59 8 108 8q115 0 256 -47q92 -31 136 -31q82 0 159 111l23 -19q-10 -16 -21 -28q-135 -156 -200.5 -424.5t-87.5 -763.5h114v-33h-340q35 690 396 1114q-59 -16 -99 -16q-98 0 -254 37q-35 8 -84 8q-51 0 -116 -13l-19 -167h-35z" />
<glyph unicode="8" horiz-adv-x="872" d="M43 295q0 203 225 338q-186 106 -186 287q0 131 102 223q94 86 250 86q139 0 229.5 -76t90.5 -195q0 -170 -185 -241q260 -142 260 -359q0 -162 -115.5 -268t-291.5 -106q-168 0 -273.5 87t-105.5 224zM117 307q0 -131 88 -210t233 -79q100 0 155.5 61.5t55.5 172.5 q0 115 -70.5 186.5t-279.5 171.5q-84 -39 -133 -120.5t-49 -182.5zM236 1026q0 -106 118 -190q84 -59 185 -101q141 66 141 230q0 100 -69.5 166.5t-176.5 66.5q-88 0 -143 -47t-55 -125z" />
<glyph unicode="9" d="M70 793q0 207 123 327q111 109 262 109q82 0 164.5 -42t132.5 -110q110 -151 110 -450t-114.5 -471t-313.5 -172q-106 0 -223 55v-88h-33v313h33v-90q82 -156 233 -156q154 0 181 150q23 127 22 455q0 420 -38 495.5t-150 75.5q-102 0 -141 -59.5t-39 -315.5 q0 -254 25.5 -309t105.5 -55q135 0 202 153l29 -14q-76 -174 -244 -174q-127 0 -221 88q-106 100 -106 285z" />
<glyph unicode=":" horiz-adv-x="378" d="M63 106q0 51 37 88t90 37q51 0 88 -38t37 -89t-37.5 -87.5t-89.5 -36.5q-51 0 -88 36.5t-37 89.5zM63 475q0 51 38 88t92 37q49 0 85.5 -37t36.5 -88t-36.5 -89t-90.5 -38q-51 0 -88 37t-37 90z" />
<glyph unicode=";" horiz-adv-x="378" d="M59 106q0 53 35 89t88 36q55 0 94 -41t39 -98q0 -90 -64.5 -160.5t-146.5 -70.5q-16 0 -43 8q100 20 138 119h-17q-53 0 -88 33.5t-35 84.5zM61 475q0 51 38 88t91 37q49 0 86 -37t37 -88t-36.5 -89t-88.5 -38q-53 0 -90 37t-37 90z" />
<glyph unicode="&#x3c;" horiz-adv-x="1212" d="M197 524v58l837 360v-57l-772 -332l772 -332v-59z" />
<glyph unicode="=" d="M63 428v55h820v-55h-820zM63 614v56h820v-56h-820z" />
<glyph unicode="&#x3e;" horiz-adv-x="1212" d="M180 162v59l770 332l-770 332v57l836 -360v-58z" />
<glyph unicode="?" horiz-adv-x="987" d="M59 1245q0 150 111 253.5t272 103.5q180 0 316.5 -132.5t136.5 -304.5q0 -154 -100 -258q-39 -41 -238 -172q-127 -84 -127 -186q0 -55 59 -88l-8 -27q-96 23 -96 125q0 90 109 205q102 106 137 209q41 119 41 248q0 350 -244 350q-127 0 -211 -97.5t-84 -246.5 q0 -111 49 -191t119 -80q27 0 61 21l15 -27q-41 -25 -78 -24q-96 0 -168 95t-72 224zM295 106q0 51 38 88t91 37q49 0 86 -38t37 -89t-37 -87.5t-88 -36.5q-53 0 -90 36.5t-37 89.5z" />
<glyph unicode="@" horiz-adv-x="1054" d="M31 580q0 205 146.5 346t359.5 141q193 0 318.5 -118t125.5 -300q0 -135 -67.5 -224t-170.5 -89q-141 0 -141 121q0 25 4 55q-80 -164 -196 -164q-147 0 -148 191q0 125 72 210t180 85q92 0 129 -91l12 88h131l-55 -346q-6 -39 -6 -63q0 -41 39 -41q66 0 116 79t50 185 q0 164 -109.5 268.5t-279.5 104.5q-193 0 -321 -125t-128 -313q0 -193 126 -320t317 -127q111 0 206 33v-45q-98 -35 -209 -35q-215 0 -358 141.5t-143 352.5zM408 512q0 -117 43 -117q45 0 109.5 103.5t64.5 171.5q0 49 -32 89t-71 40q-51 0 -82.5 -80t-31.5 -207z" />
<glyph unicode="A" horiz-adv-x="1290" d="M-18 0v33h114q57 111 111 264l86 246q-74 0 -180 -49l43 110q53 -27 149 -29l361 1043h32l322 -1043h207v-32h-195l158 -510h117v-33h-478v33h142l-162 510h-473q-41 -98 -73 -251t-32 -259h146v-33h-395zM346 575h455l-219 703z" />
<glyph unicode="B" horiz-adv-x="1138" d="M53 543v32h156v1010h-146v33h422q272 0 430 -154q72 -70 116 -179t44 -222q0 -358 -387 -498q137 -23 215 -67q63 -37 103.5 -101.5t40.5 -130.5q0 -125 -125 -200q-106 -66 -289 -66h-570v33h146v510h-156zM418 33h205q121 0 167 54.5t46 191.5q0 207 -129 245 q-59 18 -222 19h-67v-510zM418 575h67q215 0 283 73.5t68 438.5q0 336 -74 426q-59 72 -277 72h-67v-1010z" />
<glyph unicode="C" horiz-adv-x="1138" d="M66 780q0 432 266 695q169 167 410 167h3q125 0 316 -77l-2 82h33l6 -340h-33v32q0 68 -102 156q-111 96 -271 96q-96 0 -190 -37.5t-129 -91.5q-63 -96 -64 -778q0 -297 5 -383t28 -123q39 -68 156.5 -118t234.5 -50q184 0 361 142l-21 -129q-170 -47 -289 -48 q-299 0 -481 181q-238 236 -237 624z" />
<glyph unicode="D" horiz-adv-x="1366" d="M53 0v33h146v1552h-146v33h514q258 0 430 -141q303 -248 303 -656q0 -223 -100 -418.5t-268 -302.5q-158 -100 -395 -100h-484zM410 33h127q301 0 409 153q103 146 103 613q0 586 -166 712q-96 74 -326 74h-147v-1552z" />
<glyph unicode="E" horiz-adv-x="985" d="M53 543v32h156v1010h-146v33h861v45h32l5 -254h-33v66q-161 110 -431 110h-5h-74v-1010h39q170 0 291 41v80h32v-288h-32v77q-139 57 -291 58h-39v-510h57q291 0 453 108v72h33v-262h-33v49h-865v33h146v510h-156z" />
<glyph unicode="F" d="M53 543v32h156v1010h-146v33h848v45h31l4 -254h-33v68q-144 108 -431 108h-5h-59v-1010h41q154 0 319 46v90h33v-289h-33v84q-104 37 -319 37h-41v-510h209v-33h-564v33h146v510h-156z" />
<glyph unicode="G" horiz-adv-x="1290" d="M66 791q0 387 194.5 619t517.5 232q174 0 346 -73v94h31l6 -385h-33v49q0 80 -124.5 180.5t-286.5 100.5q-98 0 -188.5 -40t-129.5 -102q-90 -141 -90 -665q0 -545 72 -645q96 -135 385 -136q57 0 133 9v526h-219v33h573v-33h-145v-522h106v-33h-102q-57 0 -272 -12 q-72 -4 -121 -4q-285 0 -469 227t-184 580z" />
<glyph unicode="H" horiz-adv-x="1251" d="M55 0v33h146v518q-70 -10 -146 -45v94q59 -14 146 -16v1001h-146v33h500v-33h-145v-1001h434v1001h-148v33h502v-33h-145v-1001h153v-33h-153v-518h145v-33h-502v33h148v518h-434v-518h145v-33h-500z" />
<glyph unicode="I" horiz-adv-x="606" d="M53 0v33h146v1552h-146v33h500v-33h-145v-1552h145v-33h-500z" />
<glyph unicode="J" horiz-adv-x="606" d="M-35 -201h29q54 -67 110 -67h2q68 0 84 69q14 59 15 293v1491h-182v33h538v-33h-147v-1491q0 -127 -11 -168q-18 -82 -88 -141q-125 -104 -295 -104q-29 0 -49 2z" />
<glyph unicode="K" horiz-adv-x="1175" d="M53 0v33h146v1552h-146v33h500v-33h-145v-1098q109 190 268.5 572.5t187.5 525.5h-133v33h438v-33h-133q-102 -152 -516 -952l516 -600h133v-33h-481v33h78l-336 416l-22 -50v-366h145v-33h-500z" />
<glyph unicode="L" horiz-adv-x="909" d="M53 0v33h146v1552h-146v33h525v-33h-170v-1552h43q186 0 387 100v82h32v-272h-32v57h-785z" />
<glyph unicode="M" horiz-adv-x="1593" d="M4 1585v33h346l484 -975l333 975h373v-33h-145v-1552h145v-33h-500v33h146v1532l-428 -1241l-473 952v-334q0 -678 55 -909h143v-33h-422v33h146q45 264 45 909v401l-121 242h-127z" />
<glyph unicode="N" horiz-adv-x="1251" d="M0 1585v33h342l672 -1208v157v510q-8 322 -56 508h-133v33h389v-33h-86q-27 -80 -47 -313q-8 -84 -21 -363.5t-13 -351.5v-629l-746 1336v-70q0 -715 6 -832q12 -223 41 -329h144v-33h-426v33h131q35 170 49 428q22 367 22 720v31v113l-143 260h-125z" />
<glyph unicode="O" horiz-adv-x="1366" d="M66 788q0 178 56 354.5t150 295.5q163 204 434 204h3q250 0 420.5 -240.5t170.5 -594.5q0 -360 -176 -596t-444 -236q-252 0 -433 240t-181 573zM309 737q0 -428 66 -561q82 -166 309 -166q242 0 311 203q56 164 56 674q0 430 -68 559q-86 162 -293 162 q-121 0 -210 -62.5t-122 -169.5q-18 -61 -33.5 -259.5t-15.5 -379.5z" />
<glyph unicode="P" horiz-adv-x="1062" d="M53 551v33h156v1001h-146v33h437q256 0 410.5 -152.5t154.5 -406.5q0 -229 -145.5 -368.5t-387.5 -139.5h-114v-518h211v-33h-566v33h146v518h-156zM418 584h106q193 0 247 94t54 424q0 301 -61.5 392t-263.5 91h-82v-1001z" />
<glyph unicode="Q" horiz-adv-x="1366" d="M66 799q0 195 66.5 379t178.5 303q153 161 391 161h3q254 0 424.5 -238.5t170.5 -592.5q0 -408 -217 -653q-88 -98 -237 -156q68 -25 182 -113q6 4 111 72q61 41 135 76l12 -35q-188 -88 -422 -289l-18 27l31 31q-145 174 -357 174q-121 0 -239 -95l-23 27 q147 115 231 137q-123 59 -200 150q-223 258 -223 635zM309 735q0 -498 92 -614q51 -63 134 -88q98 14 147 14q45 0 119 -22q90 27 127 58.5t65 109.5q58 155 58 698q0 420 -64 549q-82 168 -291 168q-137 0 -228 -72t-120 -199q-12 -57 -25.5 -257.5t-13.5 -344.5z" />
<glyph unicode="R" horiz-adv-x="1175" d="M53 551v33h156v1001h-146v33h457q242 0 417 -164t175 -389q0 -123 -59.5 -235.5t-161.5 -184.5q-86 -61 -211 -88q158 -31 226 -126q67 -92 67 -277v-11q0 -78 7 -96t40 -18q78 0 141 100l27 -20q-82 -125 -211 -125q-131 0 -186 86q-18 29 -21.5 59.5t-7.5 183.5 q-2 131 -56.5 184.5t-185.5 53.5h-102v-518h145v-33h-500v33h146v518h-156zM418 584h102q195 0 248 41q104 79 104 411q0 319 -73.5 434t-278.5 115h-102v-1001z" />
<glyph unicode="S" horiz-adv-x="987" d="M61 1188q0 195 132.5 324.5t328.5 129.5q190 0 322 -75v80h30l5 -367h-33v98q-57 96 -169 163t-218 67q-115 0 -181.5 -79t-66.5 -212q0 -131 68.5 -226.5t269.5 -240.5q223 -162 287 -242q90 -115 90 -260q0 -160 -116 -266.5t-288 -106.5q-190 0 -319 70v-133h-33v403 h33v-100q66 -94 158 -149.5t182 -55.5q92 0 149.5 64.5t57.5 171.5q0 111 -73 207t-255 227q-217 156 -281 250q-80 117 -80 258z" />
<glyph unicode="T" horiz-adv-x="796" d="M6 1358v289h33v-29h717v29h32v-289h-32v112q-102 90 -242 115v-1552h158v-33h-525v33h158v1552q-125 -4 -266 -115v-112h-33z" />
<glyph unicode="U" horiz-adv-x="1290" d="M49 1585v33h500v-33h-146v-1077q0 -317 35 -389q53 -109 219 -109q115 0 208 53.5t141 147.5q53 106 53 547q0 549 -62 827h-145v33h469v-33h-156q-49 -236 -63 -801q-10 -403 -29 -489q-31 -150 -142.5 -235t-275.5 -85q-211 0 -338 119q-70 66 -96 154t-26 260v1077 h-146z" />
<glyph unicode="V" horiz-adv-x="1251" d="M-25 1585v33h543v-33h-180l385 -1235l27 96q205 739 237 1139h-139v33h446v-33h-131q-70 -147 -196 -545q-66 -201 -191 -618l-125 -447h-30l-510 1610h-136z" />
<glyph unicode="W" horiz-adv-x="1933" d="M-8 1585v33h506v-33h-144l389 -1245l193 610l-197 635h-118v33h729v-33h-136q-49 -88 -143 -364l279 -883l24 82q223 748 279 1165h-135v33h456v-33h-145q-121 -225 -422 -1175l-135 -428h-35l-283 911l-292 -911h-27l-510 1603h-133zM967 1585l86 -303q47 156 63 303 h-149z" />
<glyph unicode="X" horiz-adv-x="1175" d="M-2 0v33h123q143 184 379 706l-379 846h-123v33h506v-33h-148l273 -608q57 123 129.5 328.5t87.5 279.5h-144v33h449v-33h-145q-55 -70 -113.5 -174t-249.5 -473l406 -905h147v-33h-532v33h147l-295 667q-203 -498 -235 -667h151v-33h-434z" />
<glyph unicode="Y" horiz-adv-x="1251" d="M-29 1585v33h539v-33h-164l387 -926q72 164 154 479.5t88 446.5h-139v33h444v-33h-131q-106 -227 -408 -987v-565h185v-33h-557v33h163v545l-417 1007h-144z" />
<glyph unicode="Z" horiz-adv-x="1175" d="M33 0v33h61l744 1552h-52q-147 0 -337 -33q-121 -20 -234 -79v-76h-33l4 258h31v-37h928v-33h-74l-747 -1552h67q457 0 703 121l6 90h30l-10 -310h-30v54q-47 6 -181 8l-329 4h-547z" />
<glyph unicode="[" horiz-adv-x="569" d="M240 -301v1941h249v-51h-190v-1839h180v-51h-239z" />
<glyph unicode="\" horiz-adv-x="888" d="M72 1647h57l789 -1954h-58z" />
<glyph unicode="]" horiz-adv-x="569" d="M80 -250h190v1839h-180v51h240v-1941h-250v51z" />
<glyph unicode="^" horiz-adv-x="1212" d="M104 950l465 668h76l463 -668h-74l-430 625l-428 -625h-72z" />
<glyph unicode="_" horiz-adv-x="1212" d="M0 -199h1212v-59h-1212v59z" />
<glyph unicode="`" horiz-adv-x="1024" d="M371 877l43 49l209 -219l-25 -27z" />
<glyph unicode="a" horiz-adv-x="757" d="M39 164q0 106 85 183t206 77q47 0 100 -18v151q-29 10 -51 10q-174 0 -244 -121h-24l8 111q117 43 237 43q188 0 236 -113q16 -39 16 -129v-225q0 -102 33 -102q41 0 102 73l25 -18q-78 -102 -186 -102q-115 0 -148 104q-98 -104 -209 -104q-84 0 -135 49t-51 131z M231 100q6 -75 40 -75h1q35 0 82 34.5t76 79.5v232q-53 18 -106 18q-61 0 -76 -30.5t-15 -161.5q0 -100 -1 -100t-1 3z" />
<glyph unicode="b" horiz-adv-x="796" d="M-10 1569v33h291v-1123q78 121 190 121q111 0 186.5 -84t75.5 -205q0 -137 -98 -232t-238 -95q-78 0 -154.5 36.5t-109.5 90.5q-20 35 -25.5 69.5t-5.5 151.5v1237h-112zM281 55q55 -37 114 -37q80 0 110 48.5t30 177.5q0 242 -12.5 281.5t-59.5 39.5q-102 0 -182 -147 v-363z" />
<glyph unicode="c" horiz-adv-x="606" d="M53 297q0 129 85 216t212 87q80 0 172 -37v64h33v-242h-33v55q-84 125 -198 125q-43 0 -59.5 -58t-16.5 -210q0 -186 18.5 -232.5t93.5 -46.5q135 0 230 103l22 -21q-103 -116 -241 -116h-2q-137 0 -226.5 88t-89.5 225z" />
<glyph unicode="d" horiz-adv-x="833" d="M61 297q0 125 80 214t191 89q100 0 186 -84v1053h-115v33h293v-1569h113v-33h-291v72q-82 -88 -196 -88q-111 0 -186 89t-75 224zM256 293q0 -182 14.5 -228.5t69.5 -46.5q86 1 178 99v342q-62 108 -174 108h-2q-70 0 -84 -108q-2 -18 -2 -166z" />
<glyph unicode="e" horiz-adv-x="681" d="M55 287q0 131 92.5 222t225.5 91q125 0 196.5 -71.5t75.5 -198.5h-391q-2 -37 -2 -92q0 -131 24.5 -175.5t100.5 -44.5q160 0 268 152h19v-74q-134 -112 -288 -112h-3q-137 0 -227.5 86t-90.5 217zM254 362h281q2 15 2 29q0 176 -142 176q-72 0 -102.5 -36.5 t-36.5 -131.5z" />
<glyph unicode="f" horiz-adv-x="493" d="M25 551v33h129v749q0 168 47 232.5t168 64.5q66 0 125 -16v-109h-37q-41 90 -95 90q-20 0 -25 -29.5t-5 -138.5v-843h151v-90h-26q-31 57 -125 57v-825h-178v825h-129z" />
<glyph unicode="g" horiz-adv-x="833" d="M61 297q0 131 77 217t196 86q111 0 186 -84v68h289v-33h-111l2 -498q4 -43 35 -57q-68 -287 -362 -287q-61 0 -174 23q-70 14 -111 14v135h14q102 -137 295 -137q86 0 111 45q12 23 12 137v140q-82 -66 -190 -66q-119 0 -194 83t-75 214zM258 338q0 -223 11.5 -264 t72.5 -41q110 0 178 84v323q-47 125 -182 125q-59 0 -76 -92q-4 -31 -4 -135z" />
<glyph unicode="h" horiz-adv-x="833" d="M25 0v33h112v1536h-112v33h290v-1186q104 184 220 184q76 0 131 -59q47 -51 47 -168v-340h112v-33h-290v444q0 82 -5 103q-4 14 -22 14q-96 0 -193 -219v-309h107v-33h-397z" />
<glyph unicode="i" horiz-adv-x="454" d="M25 0v33h112v518h-112v33h337v-33h-47v-518h115v-33h-405zM160 1116h143q-55 -162 -55 -401v-41h-33v41q0 242 -55 401z" />
<glyph unicode="j" horiz-adv-x="454" d="M8 -133h29q4 -129 80 -129q23 0 28 20.5t5 108.5v684h-113v33h338v-33h-47v-549q0 -147 -37 -207q-55 -90 -170 -90q-23 0 -38 2t-36 2h-18l-21 -2v160zM176 1116h143q-55 -166 -55 -401v-41h-33v41q0 231 -55 401z" />
<glyph unicode="k" horiz-adv-x="909" d="M25 0v33h112v1536h-112v33h290v-1289l95 60q143 90 165 178h-73v33h319v-33h-78q-109 -53 -278 -178l332 -340h104v-33h-326l-260 281v-248h115v-33h-405z" />
<glyph unicode="l" horiz-adv-x="454" d="M25 0v33h112v1536h-112v33h290v-1569h115v-33h-405z" />
<glyph unicode="m" horiz-adv-x="1212" d="M25 0v33h112v518h-112v33h290v-142q94 158 213 158q145 0 174 -168q90 168 218 168q78 0 125 -57.5t47 -151.5v-358h114v-33h-293v489q0 72 -30 72q-39 0 -91.5 -59.5t-89.5 -147.5v-321h113v-33h-291v489q0 72 -24 72q-43 0 -109 -74q-51 -55 -76 -143v-311h115v-33 h-405z" />
<glyph unicode="n" horiz-adv-x="833" d="M25 0v33h112v518h-112v33h290v-140q92 156 207 156q86 0 139.5 -69.5t53.5 -180.5v-317h112v-33h-292v471q0 90 -39 90q-94 0 -181 -196v-332h115v-33h-405z" />
<glyph unicode="o" horiz-adv-x="757" d="M55 287q0 139 90.5 226t235.5 87q139 0 230 -88t91 -221q0 -139 -88 -223t-233 -84q-150 0 -238 81.5t-88 221.5zM250 301q0 -150 6 -180q20 -102 111 -103q80 0 108.5 45t28.5 168q0 248 -25.5 292t-105.5 44q-74 0 -98.5 -54t-24.5 -212z" />
<glyph unicode="p" horiz-adv-x="833" d="M18 -258h113v936h-113v33h291v-199q86 88 185 88q115 0 196.5 -88t81.5 -213q0 -131 -87 -223t-210 -92q-98 0 -166 73v-315h115v-33h-406v33zM309 109q68 -90 156 -91q63 0 85.5 59.5t22.5 233.5q0 256 -100 256q-78 0 -164 -104v-354z" />
<glyph unicode="q" horiz-adv-x="833" d="M61 287q0 135 77 224t192 89q109 0 186 -86v70h293v-33h-113v-809h113v-33h-406v33h113v313q-77 -71 -183 -71h-3q-119 0 -194 85t-75 218zM256 311q0 -217 16.5 -255t71.5 -38q98 0 172 86v357q-68 104 -174 104q-49 0 -67.5 -54t-18.5 -200z" />
<glyph unicode="r" horiz-adv-x="606" d="M25 0v33h112v518h-112v33h290v-121q68 117 168 117q25 0 70 -11v70h33v-313h-33q0 59 -8 88q-31 108 -106 108h-1q-66 0 -102 -98q-20 -55 -21 -188v-203h156v-33h-446z" />
<glyph unicode="s" horiz-adv-x="569" d="M57 428q0 76 61.5 124t160.5 48q92 0 159 -31v62h31l6 -230h-33l-2 60q-75 110 -154 110h-1q-72 0 -72 -69q0 -39 28.5 -65.5t120.5 -78.5q166 -89 166 -198q0 -80 -62.5 -128t-168.5 -48q-94 0 -191 43v-54h-32v209h32v-67q102 -96 191 -97q78 0 78 66q0 39 -35 69.5 t-150 96.5q-133 76 -133 178z" />
<glyph unicode="t" horiz-adv-x="493" d="M16 551v33h117v600h178v-600h174v-117h-32q-35 84 -142 84v-381v-87v1q4 -61 41 -61q49 0 119 69l18 -18q-82 -90 -186 -90q-102 0 -143 53q-27 35 -27 147v367h-117z" />
<glyph unicode="u" horiz-adv-x="833" d="M8 551v33h291v-439q0 -70 2 -77q6 -45 45 -45q45 0 95.5 39.5t76.5 95.5v393h-112v33h292v-551h113v-33h-291v96q-63 -66 -96 -84q-45 -28 -114 -28h-5q-111 0 -155 59q-29 39 -29 162v346h-113z" />
<glyph unicode="v" horiz-adv-x="720" d="M-12 551v33h377v-33h-89l166 -332q82 174 84 332h-71v33h278v-33h-94q-72 -115 -184 -375l-90 -209l-287 584h-90z" />
<glyph unicode="w" horiz-adv-x="1062" d="M-10 551v33h385v-33h-109l152 -318l160 388l198 -410q33 57 60.5 163.5t31.5 176.5h-104v33h307v-33h-98q-35 -61 -131 -279q-16 -37 -51 -108l-93 -197l-192 398l-158 -398l-287 584h-71z" />
<glyph unicode="x" horiz-adv-x="720" d="M-14 0v33h102l66 92q53 59 102 127l16 22l-180 277h-106v33h389v-33h-68l96 -156q57 63 72 156h-61v33h278v-33h-114l-156 -184l213 -334h100v-33h-387v33h78l-135 211q-72 -86 -84 -211h76v-33h-297z" />
<glyph unicode="y" horiz-adv-x="833" d="M25 551v33h290v-414q0 -94 9.5 -116.5t48.5 -22.5q96 0 168 139v381h-115v33h293v-459q0 -166 20 -213q-123 -223 -340 -223q-135 0 -223 80l51 75l15 -10q16 -41 73.5 -77t110.5 -36q70 0 96 56q16 35 17 160v161q-88 -106 -209 -106t-166 74q-27 43 -27 176v309h-112z " />
<glyph unicode="z" horiz-adv-x="720" d="M37 0l391 535h-18q-137 0 -265 -58l-4 -63h-32l12 207h33l-2 -39q96 -14 317 -15q104 0 215 6l-397 -534h11q152 0 288 55l4 64h33l-17 -217h-35l7 53q-74 10 -256 10q-141 0 -285 -4z" />
<glyph unicode="{" horiz-adv-x="681" d="M231 670q102 84 103 235q0 47 -37 172q-29 98 -29 193q0 281 332 387v-47q-272 -90 -272 -353q0 -88 55 -276q10 -35 10 -86q0 -123 -86 -225q86 -102 86 -226q0 -59 -39 -190q-27 -90 -26 -168q0 -266 272 -356v-49q-113 41 -176 83q-156 104 -156 308q0 92 58 286 q8 29 8 76q0 147 -103 236z" />
<glyph unicode="|" horiz-adv-x="1212" d="M578 -403v2021h57v-2021h-57z" />
<glyph unicode="}" horiz-adv-x="681" d="M82 -272q272 90 272 354q0 84 -55 274q-10 35 -10 86q0 125 86 226q-86 100 -86 225q0 59 39 190q27 90 26 168q0 266 -272 357v49q115 -41 176 -84q156 -106 156 -307q0 -92 -58 -287q-8 -29 -8 -76q1 -149 103 -235q-102 -84 -103 -236q0 -47 37 -172q29 -98 29 -192 q0 -281 -332 -387v47z" />
<glyph unicode="~" horiz-adv-x="1617" d="M231 1489q72 125 141.5 177t162.5 52q98 0 288 -104q176 -96 258 -96q139 0 258 204l45 -28q-129 -229 -303 -230q-78 0 -174 45q-6 2 -162 86q-133 72 -217 72q-133 0 -252 -207z" />
<glyph unicode="&#xa1;" horiz-adv-x="645" d="M199 1477q0 51 36.5 88t90.5 37q51 0 88 -38t37 -89t-38 -88t-89 -37t-88 36.5t-37 90.5zM201 0l69 1098h78l84 -1065h100v-33h-331z" />
<glyph unicode="&#xa2;" d="M195 682q0 78 36.5 148.5t95 104.5t152.5 50v145h33v-145q74 -2 156 -33v58h32v-248h-32v72q-98 109 -185 108q-70 0 -84 -131q-2 -20 -2 -178q0 -139 21 -178q25 -47 108 -47q119 0 217 106l23 -25q-104 -123 -254 -122v-168h-33v168q-135 27 -209.5 108.5t-74.5 206.5z " />
<glyph unicode="&#xa3;" d="M68 152q0 68 55 110.5t143 42.5q68 0 195 -43q-16 115 -137 236h-158v32h127q-164 172 -164 326t115.5 263.5t279.5 109.5q147 0 247.5 -94.5t100.5 -233.5q0 -106 -59 -174t-149 -68q-29 0 -58 11l4 26q14 -2 35 -2q66 0 111 54.5t45 136.5q0 125 -78 217t-182 92 q-188 0 -189 -305q0 -219 58 -359h292v-32h-278q72 -109 82 -250q309 -115 420 -125l43 139l32 -12l-104 -320l-33 11l15 43q-195 123 -385 209q-72 -197 -244 -197q-78 0 -130 45t-52 111zM102 145q0 -51 42 -82.5t108 -31.5q170 0 209 176q-94 55 -193 55 q-166 0 -166 -117z" />
<glyph unicode="&#xa4;" d="M164 279l86 86q-68 86 -68 184t68 184l-86 86l39 39l86 -84q90 66 184 66q96 0 186 -66l84 84l39 -39l-84 -86q66 -88 66 -184t-66 -184l84 -86l-39 -39l-86 84q-88 -66 -184 -66t-184 66l-86 -84zM240 549q0 -96 69.5 -165t165.5 -69t165 69t69 167q0 96 -70 163.5 t-168 67.5q-94 0 -162.5 -68.5t-68.5 -164.5z" />
<glyph unicode="&#xa5;" d="M-133 1585v33h539v-33h-164l340 -926q57 154 128.5 472.5t77.5 453.5h-137v33h445v-33h-131q-104 -231 -375 -987h246v-33h-246v-71h246v-33h-246v-428h182v-33h-557v33h166v428h-252v33h252v71h-252v33h244l-365 987h-141z" />
<glyph unicode="&#xa6;" horiz-adv-x="1212" d="M578 373h57v-776h-57v776zM578 840v778h57v-778h-57z" />
<glyph unicode="&#xa7;" d="M16 879q0 109 51.5 181.5t176.5 139.5q-78 78 -78 191q0 111 91 180t237 69q109 0 239 -51v51h33l6 -286h-33l-4 102q-94 145 -243 146q-145 0 -146 -117q0 -76 72 -131q25 -20 248 -152q247 -139 247 -354q0 -272 -262 -346q221 -150 221 -318q0 -147 -125.5 -254.5 t-295.5 -107.5q-141 0 -312 94v-109h-33v363h33v-111q168 -197 336 -196q96 0 153.5 51t57.5 139q0 102 -88 189q-47 45 -84 72.5t-207 138.5q-291 190 -291 426zM201 981q0 -115 96 -219.5t321 -235.5q164 46 164 183q0 109 -106 204q-68 59 -264 168q-70 37 -131 82 q-80 -88 -80 -182z" />
<glyph unicode="&#xa8;" horiz-adv-x="1024" d="M371 750v77h75v-77h-75zM580 750v77h73v-77h-73z" />
<glyph unicode="&#xa9;" horiz-adv-x="1890" d="M117 813q0 342 245.5 581.5t598.5 239.5q332 0 572.5 -245.5t240.5 -581.5q0 -344 -243 -587t-585 -243q-346 0 -587.5 244t-241.5 592zM168 807q0 -324 227.5 -552t550.5 -228q324 0 550 229t226 557q0 322 -230 547t-558 225q-313 0 -539.5 -230.5t-226.5 -547.5z M481 795q0 262 151.5 445t368.5 183q115 0 285 -73v77h33l6 -321h-33v31q0 63 -98 149q-104 90 -248 90q-158 0 -201 -112q-39 -104 -38 -476q0 -313 20 -385q51 -174 262 -174q168 0 330 133l-19 -122q-164 -45 -270 -45q-225 0 -381 161q-168 174 -168 439z" />
<glyph unicode="&#xaa;" horiz-adv-x="514" d="M53 741q0 68 54.5 114t136.5 46q18 0 57 -8v80q-12 4 -31 4q-102 0 -145 -72h-23l4 74q74 27 156 27q94 0 133 -33t39 -115v-133q0 -57 15 -57q20 0 57 47l22 -19q-53 -66 -127 -65q-68 0 -94 57q-55 -57 -129 -57q-125 0 -125 110zM193 750q0 -84 18 -84q47 0 90 63v133 q-35 8 -59 8q-35 0 -42 -17t-7 -103z" />
<glyph unicode="&#xab;" d="M37 575l475 383l20 -24l-335 -270l315 -390l-139 -114zM416 575l475 383l20 -24l-333 -270l313 -390l-139 -114z" />
<glyph unicode="&#xac;" horiz-adv-x="1214" d="M82 594v53h1051v-647h-58v594h-993z" />
<glyph unicode="&#xad;" horiz-adv-x="681" d="M41 274v56h600v-56h-600z" />
<glyph unicode="&#xae;" horiz-adv-x="1890" d="M117 813q0 342 245.5 581.5t598.5 239.5q332 0 572.5 -245.5t240.5 -581.5q0 -344 -243 -587t-585 -243q-346 0 -587.5 244t-241.5 592zM168 807q0 -324 227.5 -552t550.5 -228q324 0 550 229t226 557q0 322 -230 547t-558 225q-313 0 -539.5 -230.5t-226.5 -547.5z M559 612v33h115v723h-109v33h350q186 0 319.5 -121t133.5 -289q0 -137 -90 -237.5t-242 -132.5q127 -25 178.5 -93.5t49.5 -208.5q0 -53 4 -67t22 -14q51 0 103 71l24 -20q-61 -90 -157 -90q-102 0 -146 61q-14 23 -18 46.5t-6 131.5q-2 96 -41 135t-134 39h-69v-370h110 v-31h-391v31h109v370h-115zM846 645h69q141 0 183 31q76 57 76 299q0 229 -54.5 311t-204.5 82h-69v-723z" />
<glyph unicode="&#xaf;" horiz-adv-x="1024" d="M309 780v43h408v-43h-408z" />
<glyph unicode="&#xb0;" d="M184 1329q0 121 86 205t209 84q117 0 202 -86t85 -205q0 -121 -85 -206t-206 -85t-206 85t-85 208zM242 1327q0 -96 68.5 -164.5t166.5 -68.5q96 0 165 68.5t69 166.5q0 96 -70 164t-168 68q-94 0 -162.5 -70t-68.5 -164z" />
<glyph unicode="&#xb1;" d="M63 0v55h820v-55h-820zM63 522v56h383v380h56v-380h381v-56h-381v-383h-56v383h-383z" />
<glyph unicode="&#xb2;" horiz-adv-x="616" d="M74 485v21q184 133 233 186q78 86 78 293t-102 207q-68 0 -110 -49t-42 -127q0 -111 78 -111q57 0 72 70l22 -12q-16 -88 -96 -89q-55 0 -93 41t-38 101q0 86 63.5 146.5t153.5 60.5q102 0 175 -66t73 -156q0 -152 -160 -299q-74 -68 -244 -188h41q164 0 316 45v49h30 l-8 -166h-29v39q-61 4 -176 4h-237z" />
<glyph unicode="&#xb3;" horiz-adv-x="616" d="M76 467v184h28v-49q70 -94 179 -94q51 0 70.5 45t19.5 162q0 88 -11 114q-20 47 -94 48q-23 0 -69 -7v-51h-29v156h29v-51q29 -18 82 -19q55 0 71 41q8 23 8 90q0 88 -17 123t-62 35q-90 0 -156 -86v-51h-29v180h29v-43q70 31 143 31q100 0 171 -53.5t71 -129.5 q0 -106 -137 -149q155 -53 155 -203q0 -90 -71.5 -151.5t-173.5 -61.5q-70 0 -179 39v-49h-28z" />
<glyph unicode="&#xb4;" horiz-adv-x="1024" d="M512 702l195 228l51 -45l-219 -207z" />
<glyph unicode="&#xb6;" horiz-adv-x="1236" d="M94 1102q0 143 72 265t194.5 186.5t427.5 64.5h369v-43h-145v-1122q0 -172 -23.5 -252t-95.5 -154q-135 -137 -338 -137q-84 0 -158 20v101q72 -68 166 -68q170 0 209 168q10 43 10 148v268h-39q-162 0 -263 30.5t-189 108.5q-197 174 -197 416zM748 -4q208 111 208 377 v1202h-118v-1202q0 -156 -7 -201q-16 -106 -83 -176z" />
<glyph unicode="&#xb7;" horiz-adv-x="378" d="M63 303q0 51 38 88t92 37q49 0 85.5 -37t36.5 -88t-36.5 -89t-90.5 -38q-51 0 -88 37t-37 90z" />
<glyph unicode="&#xb8;" horiz-adv-x="1024" d="M453 -301l8 43q10 -2 22 -2q100 0 101 70q0 57 -92 69l28 121h45l-20 -84q92 -28 92 -102q0 -51 -40 -84t-105 -33q-23 0 -39 2z" />
<glyph unicode="&#xb9;" horiz-adv-x="616" d="M117 1040q39 23 164 111l165 125l19 -25q-18 -14 -53 -41v-696h75v-29h-311v29h84v590q-8 -6 -59 -39q-10 -8 -74 -51z" />
<glyph unicode="&#xba;" horiz-adv-x="479" d="M27 815q0 84 59 137.5t154 53.5q90 0 150.5 -53.5t60.5 -135.5q0 -84 -57.5 -135t-153.5 -51t-154.5 50t-58.5 134zM166 823q0 -86 2 -102q12 -61 63 -62q45 0 61.5 25.5t16.5 95.5q0 129 -12 162t-64 33q-49 0 -63 -55q-4 -20 -4 -97z" />
<glyph unicode="&#xbb;" d="M37 182l336 273l-316 387l140 114l335 -413l-475 -385zM416 182l336 273l-316 387l142 114l333 -413l-475 -385z" />
<glyph unicode="&#xbc;" horiz-adv-x="1345" d="M117 1040q39 23 164 111l165 125l19 -25q-18 -14 -53 -41v-696h75v-29h-311v29h84v590q-8 -6 -59 -39q-10 -8 -74 -51zM221 -31l826 1317l36 -26l-823 -1317zM653 197q61 72 174 227l275 379l22 -19l-43 -59v-504h13q33 0 57 19v41h29v-154h-29v53q-23 10 -57 10h-13 v-161h80v-29h-321v29h94v161h-55q-143 0 -215 -12zM760 221h174v297l-12 -20l-39 -58q-51 -74 -123 -219z" />
<glyph unicode="&#xbd;" horiz-adv-x="1345" d="M104 1040q39 23 164 111l166 125l19 -25q-18 -14 -54 -41v-696h76v-29h-311v29h84v590q-8 -6 -60 -39q-10 -8 -73 -51zM215 -31l825 1317l37 -26l-823 -1317zM743 0v20q18 12 80 58q147 106 189.5 182t42.5 238q0 209 -103 209q-68 0 -109.5 -48.5t-41.5 -126.5 q0 -113 78 -112q57 0 71 69l23 -12q-16 -88 -94 -88q-57 0 -95.5 41t-38.5 100q0 86 63.5 146.5t156.5 60.5q100 0 172.5 -65.5t72.5 -155.5q0 -152 -159 -299q-70 -66 -244 -188h41q164 0 315 45v49h31l-8 -166h-29v39q-53 4 -176 4h-238z" />
<glyph unicode="&#xbe;" horiz-adv-x="1345" d="M121 467v184h29v-49q70 -94 178 -94q51 0 70.5 45t19.5 162q0 88 -10 114q-20 47 -95 48q-23 0 -69 -7v-51h-29v156h29v-51q29 -18 82 -19q55 0 71 41q8 23 9 90q0 88 -17.5 123t-62.5 35q-90 0 -156 -86v-51h-29v180h29v-43q70 31 143 31q100 0 171 -53.5t71 -129.5 q0 -106 -137 -149q155 -53 155 -203q0 -90 -71.5 -151.5t-173.5 -61.5q-70 0 -178 39v-49h-29zM299 -31l823 1317l37 -26l-823 -1317zM723 197q68 84 172 227l274 379l25 -19l-45 -59v-504h12q35 0 60 19v41h28v-154h-28v53q-23 10 -60 10h-12v-161h82v-29h-324v29h94v161 h-55q-147 0 -215 -12zM827 221h174v297q-113 -162 -174 -297z" />
<glyph unicode="&#xbf;" horiz-adv-x="987" d="M92 416q0 150 101 256q43 45 235 172q127 84 127 186q0 57 -57 90l6 25q96 -18 96 -123q0 -92 -108 -207q-100 -106 -136 -207q-41 -121 -41 -246q0 -352 244 -352q127 0 211 98.5t84 247.5q0 109 -50 189t-118 80q-25 0 -61 -23l-17 27q43 27 82 26q94 0 166 -96 t72 -223q0 -150 -110.5 -253t-272.5 -103q-180 0 -316.5 131t-136.5 305zM438 1477q0 51 37 88t90 37q51 0 88 -38t37 -89q0 -53 -37 -89t-90 -36t-89 36.5t-36 90.5z" />
<glyph unicode="&#xc0;" horiz-adv-x="1290" d="M-18 0v33h114q57 111 111 264l86 246q-74 0 -180 -49l43 110q53 -27 149 -29l361 1043h32l322 -1043h207v-32h-195l158 -510h117v-33h-478v33h142l-162 510h-473q-41 -98 -73 -251t-32 -259h146v-33h-395zM346 575h455l-219 703zM467 1853l33 60l270 -152l-16 -32z" />
<glyph unicode="&#xc1;" horiz-adv-x="1290" d="M-18 0v33h114q57 111 111 264l86 246q-74 0 -180 -49l43 110q53 -27 149 -29l361 1043h32l322 -1043h207v-32h-195l158 -510h117v-33h-478v33h142l-162 510h-473q-41 -98 -73 -251t-32 -259h146v-33h-395zM346 575h455l-219 703zM612 1761l271 152l32 -60l-286 -124z" />
<glyph unicode="&#xc2;" horiz-adv-x="1290" d="M-18 0v33h114q57 111 111 264l86 246q-74 0 -180 -49l43 110q53 -27 149 -29l361 1043h32l322 -1043h207v-32h-195l158 -510h117v-33h-478v33h142l-162 510h-473q-41 -98 -73 -251t-32 -259h146v-33h-395zM346 575h455l-219 703zM465 1731l182 174h64l182 -174h-45 l-170 116l-168 -116h-45z" />
<glyph unicode="&#xc3;" horiz-adv-x="1290" d="M-18 0v33h114q57 111 111 264l86 246q-74 0 -180 -49l43 110q53 -27 149 -29l361 1043h32l322 -1043h207v-32h-195l158 -510h117v-33h-478v33h142l-162 510h-473q-41 -98 -73 -251t-32 -259h146v-33h-395zM346 575h455l-219 703zM449 1767q74 90 157 91q45 0 107 -35 q53 -31 80 -31q45 0 94 55l33 -30q-63 -70 -129 -70q-43 0 -96.5 32.5t-90.5 32.5q-61 0 -121 -73z" />
<glyph unicode="&#xc4;" horiz-adv-x="1290" d="M-18 0v33h114q57 111 111 264l86 246q-74 0 -180 -49l43 110q53 -27 149 -29l361 1043h32l322 -1043h207v-32h-195l158 -510h117v-33h-478v33h142l-162 510h-473q-41 -98 -73 -251t-32 -259h146v-33h-395zM346 575h455l-219 703zM537 1765v80h77v-80h-77zM745 1765v80h78 v-80h-78z" />
<glyph unicode="&#xc5;" horiz-adv-x="1290" d="M-18 0v33h114q57 111 111 264l86 246q-74 0 -180 -49l43 110q53 -27 149 -29l361 1043h32l322 -1043h207v-32h-195l158 -510h117v-33h-478v33h142l-162 510h-473q-41 -98 -73 -251t-32 -259h146v-33h-395zM346 575h455l-219 703zM535 1810q0 59 43 101.5t102 42.5 q57 0 99 -43.5t42 -102.5t-42 -101t-101 -42t-101 42t-42 103zM578 1810q0 -41 29.5 -71.5t70.5 -30.5t70.5 30.5t29.5 71.5t-29.5 71t-72.5 30q-41 0 -69.5 -30t-28.5 -71z" />
<glyph unicode="&#xc6;" horiz-adv-x="1744" d="M-43 0v33h109q137 170 272 428l47 90q-102 -10 -209 -66l55 136q72 -31 172 -37l531 1001h-127v33h876v45h31l6 -254h-34v66q-162 111 -455 110h-53v-1001h39q193 0 286 37v86h33v-289h-33v76q-147 57 -286 57h-39v-518h53q291 0 457 108v72h32v-262h-32v49h-867v33h148 v518h-531q-143 -229 -227 -518h141v-33h-395zM453 584h516v1001z" />
<glyph unicode="&#xc7;" horiz-adv-x="1138" d="M66 780q0 432 266 695q170 168 413 167q125 0 316 -77l-2 82h33l6 -340h-33v32q0 68 -102 156q-111 96 -271 96q-96 0 -190 -37.5t-129 -91.5q-63 -96 -64 -778q0 -297 5 -383t28 -123q39 -68 156.5 -118t234.5 -50q184 0 361 142l-21 -129q-168 -47 -282 -48 q-37 0 -68 2l-14 -63q94 -31 94 -107q0 -53 -42 -86.5t-108 -33.5q-25 0 -41 4l9 43q12 -4 28 -4q98 0 99 73q0 59 -95 74l25 105q-276 29 -444 249t-168 549z" />
<glyph unicode="&#xc8;" horiz-adv-x="987" d="M53 543v32h156v1010h-146v33h861v45h32l5 -254h-33v66q-162 111 -436 110h-74v-1010h39q170 0 291 41v80h32v-288h-32v77q-139 57 -291 58h-39v-510h57q291 0 453 108v72h33v-262h-33v49h-865v33h146v510h-156zM375 1853l33 60l270 -152l-16 -32z" />
<glyph unicode="&#xc9;" horiz-adv-x="987" d="M53 543v32h156v1010h-146v33h861v45h32l5 -254h-33v66q-162 111 -436 110h-74v-1010h39q170 0 291 41v80h32v-288h-32v77q-139 57 -291 58h-39v-510h57q291 0 453 108v72h33v-262h-33v49h-865v33h146v510h-156zM498 1761l270 152l33 -60l-287 -124z" />
<glyph unicode="&#xca;" horiz-adv-x="987" d="M53 543v32h156v1010h-146v33h861v45h32l5 -254h-33v66q-162 111 -436 110h-74v-1010h39q170 0 291 41v80h32v-288h-32v77q-139 57 -291 58h-39v-510h57q291 0 453 108v72h33v-262h-33v49h-865v33h146v510h-156zM385 1731l182 174h64l182 -174h-45l-170 116l-168 -116h-45 z" />
<glyph unicode="&#xcb;" horiz-adv-x="987" d="M53 543v32h156v1010h-146v33h861v45h32l5 -254h-33v66q-162 111 -436 110h-74v-1010h39q170 0 291 41v80h32v-288h-32v77q-139 57 -291 58h-39v-510h57q291 0 453 108v72h33v-262h-33v49h-865v33h146v510h-156zM455 1765v80h77v-80h-77zM664 1765v80h77v-80h-77z" />
<glyph unicode="&#xcc;" horiz-adv-x="606" d="M53 0v33h146v1552h-146v33h500v-33h-145v-1552h145v-33h-500zM80 1853l33 60l270 -152l-16 -32z" />
<glyph unicode="&#xcd;" horiz-adv-x="606" d="M53 0v33h146v1552h-146v33h500v-33h-145v-1552h145v-33h-500zM225 1761l271 152l32 -60l-286 -124z" />
<glyph unicode="&#xce;" horiz-adv-x="606" d="M53 0v33h146v1552h-146v33h500v-33h-145v-1552h145v-33h-500zM90 1731l182 174h64l182 -174h-45l-170 116l-168 -116h-45z" />
<glyph unicode="&#xcf;" horiz-adv-x="606" d="M53 0v33h146v1552h-146v33h500v-33h-145v-1552h145v-33h-500zM160 1765v80h78v-80h-78zM369 1765v80h77v-80h-77z" />
<glyph unicode="&#xd0;" horiz-adv-x="1366" d="M53 0v33h146v510h-146v32h146v1010h-146v33h516q256 0 428 -141q303 -248 303 -656q0 -223 -100 -418.5t-268 -302.5q-158 -100 -395 -100h-484zM410 33h127q301 0 409 153q103 146 103 615q0 584 -166 710q-96 74 -326 74h-147v-1010h284v-32h-284v-510z" />
<glyph unicode="&#xd1;" horiz-adv-x="1251" d="M0 1585v33h342l672 -1208v157v510q-8 322 -56 508h-133v33h389v-33h-86q-27 -80 -47 -313q-8 -84 -21 -363.5t-13 -351.5v-629l-746 1336v-70q0 -715 6 -832q12 -223 41 -329h144v-33h-426v33h131q35 170 49 428q23 383 22 751v113l-143 260h-125zM436 1767q74 90 158 91 q45 0 106 -35q53 -31 80 -31q45 0 94 55l33 -30q-63 -70 -129 -70q-43 0 -96 32.5t-90 32.5q-61 0 -121 -73z" />
<glyph unicode="&#xd2;" horiz-adv-x="1366" d="M66 788q0 178 56 354.5t150 295.5q164 205 437 204q250 0 420.5 -240.5t170.5 -594.5q0 -360 -176 -596t-444 -236q-252 0 -433 240t-181 573zM309 737q0 -428 66 -561q82 -166 309 -166q242 0 311 203q56 164 56 674q0 430 -68 559q-86 162 -293 162q-121 0 -210 -62.5 t-122 -169.5q-18 -61 -33.5 -259.5t-15.5 -379.5zM481 1853l33 60l270 -152l-16 -32z" />
<glyph unicode="&#xd3;" horiz-adv-x="1366" d="M66 788q0 178 56 354.5t150 295.5q164 205 437 204q250 0 420.5 -240.5t170.5 -594.5q0 -360 -176 -596t-444 -236q-252 0 -433 240t-181 573zM309 737q0 -428 66 -561q82 -166 309 -166q242 0 311 203q56 164 56 674q0 430 -68 559q-86 162 -293 162q-121 0 -210 -62.5 t-122 -169.5q-18 -61 -33.5 -259.5t-15.5 -379.5zM604 1761l270 152l33 -60l-286 -124z" />
<glyph unicode="&#xd4;" horiz-adv-x="1366" d="M66 788q0 178 56 354.5t150 295.5q164 205 437 204q250 0 420.5 -240.5t170.5 -594.5q0 -360 -176 -596t-444 -236q-252 0 -433 240t-181 573zM309 737q0 -428 66 -561q82 -166 309 -166q242 0 311 203q56 164 56 674q0 430 -68 559q-86 162 -293 162q-121 0 -210 -62.5 t-122 -169.5q-18 -61 -33.5 -259.5t-15.5 -379.5zM469 1731l182 174h64l182 -174h-45l-170 116l-168 -116h-45z" />
<glyph unicode="&#xd5;" horiz-adv-x="1366" d="M66 788q0 178 56 354.5t150 295.5q164 205 437 204q250 0 420.5 -240.5t170.5 -594.5q0 -360 -176 -596t-444 -236q-252 0 -433 240t-181 573zM309 737q0 -428 66 -561q82 -166 309 -166q242 0 311 203q56 164 56 674q0 430 -68 559q-86 162 -293 162q-121 0 -210 -62.5 t-122 -169.5q-18 -61 -33.5 -259.5t-15.5 -379.5zM459 1774q74 90 157 90q45 0 107 -35q53 -31 80 -31q45 0 94 55l33 -30q-63 -70 -129 -70q-43 0 -96.5 33t-90.5 33q-61 0 -120 -74z" />
<glyph unicode="&#xd6;" horiz-adv-x="1366" d="M66 788q0 178 56 354.5t150 295.5q164 205 437 204q250 0 420.5 -240.5t170.5 -594.5q0 -360 -176 -596t-444 -236q-252 0 -433 240t-181 573zM309 737q0 -428 66 -561q82 -166 309 -166q242 0 311 203q56 164 56 674q0 430 -68 559q-86 162 -293 162q-121 0 -210 -62.5 t-122 -169.5q-18 -61 -33.5 -259.5t-15.5 -379.5zM539 1765v80h77v-80h-77zM748 1765v80h77v-80h-77z" />
<glyph unicode="&#xd7;" d="M164 279l270 270l-270 270l39 39l270 -270l270 270l39 -39l-270 -270l270 -270l-39 -39l-270 270l-270 -270z" />
<glyph unicode="&#xd8;" horiz-adv-x="1366" d="M66 791q0 176 56 352t150 295q76 94 193 149t240 55q139 0 256 -75l69 155h39l-78 -176q309 -245 309 -737q0 -362 -175 -598t-445 -236q-174 0 -324 123l-84 -192h-39l95 217q-262 262 -262 668zM309 739q0 -365 53 -534l576 1306q-94 96 -244 97q-121 0 -212 -62.5 t-124 -169.5q-18 -61 -33.5 -258.5t-15.5 -378.5zM383 162q88 -152 297 -152q246 0 315 203q56 164 56 670q0 223 -9 305q-16 195 -79 293z" />
<glyph unicode="&#xd9;" horiz-adv-x="1290" d="M49 1585v33h500v-33h-146v-1077q0 -317 35 -389q53 -109 219 -109q115 0 208 53.5t141 147.5q53 106 53 547q0 549 -62 827h-145v33h469v-33h-156q-49 -236 -63 -801q-10 -403 -29 -489q-31 -150 -142.5 -235t-275.5 -85q-211 0 -338 119q-70 66 -96 154t-26 260v1077 h-146zM479 1853l33 60l270 -152l-16 -32z" />
<glyph unicode="&#xda;" horiz-adv-x="1290" d="M49 1585v33h500v-33h-146v-1077q0 -317 35 -389q53 -109 219 -109q115 0 208 53.5t141 147.5q53 106 53 547q0 549 -62 827h-145v33h469v-33h-156q-49 -236 -63 -801q-10 -403 -29 -489q-31 -150 -142.5 -235t-275.5 -85q-211 0 -338 119q-70 66 -96 154t-26 260v1077 h-146zM627 1761l270 152l33 -60l-287 -124z" />
<glyph unicode="&#xdb;" horiz-adv-x="1290" d="M49 1585v33h500v-33h-146v-1077q0 -317 35 -389q53 -109 219 -109q115 0 208 53.5t141 147.5q53 106 53 547q0 549 -62 827h-145v33h469v-33h-156q-49 -236 -63 -801q-10 -403 -29 -489q-31 -150 -142.5 -235t-275.5 -85q-211 0 -338 119q-70 66 -96 154t-26 260v1077 h-146zM524 1731l183 174h63l182 -174h-45l-170 116l-168 -116h-45z" />
<glyph unicode="&#xdc;" horiz-adv-x="1290" d="M49 1585v33h500v-33h-146v-1077q0 -317 35 -389q53 -109 219 -109q115 0 208 53.5t141 147.5q53 106 53 547q0 549 -62 827h-145v33h469v-33h-156q-49 -236 -63 -801q-10 -403 -29 -489q-31 -150 -142.5 -235t-275.5 -85q-211 0 -338 119q-70 66 -96 154t-26 260v1077 h-146zM549 1765v80h78v-80h-78zM758 1765v80h78v-80h-78z" />
<glyph unicode="&#xdd;" horiz-adv-x="1251" d="M-29 1585v33h539v-33h-164l387 -926q72 164 154 479.5t88 446.5h-139v33h444v-33h-131q-106 -227 -408 -987v-565h185v-33h-557v33h163v545l-417 1007h-144zM616 1761l271 152l33 -60l-287 -124z" />
<glyph unicode="&#xde;" horiz-adv-x="1099" d="M53 309v33h156v1243h-146v33h500v-33h-143v-211h80q256 0 410.5 -152.5t154.5 -406.5q0 -229 -145.5 -367.5t-387.5 -138.5h-114v-276h211v-33h-566v33h146v276h-156zM418 342h106q193 0 247 95t54 429q0 293 -62.5 384t-262.5 91h-82v-999z" />
<glyph unicode="&#xdf;" horiz-adv-x="796" d="M25 551v33h129v727q0 94 4 127q10 68 49 114q72 90 223 90q174 0 286.5 -126.5t112.5 -321.5q0 -197 -110.5 -335t-272.5 -144q-2 -14 -2 -33q0 -115 119 -220.5t142 -146.5q29 -55 28 -110q0 -92 -54 -156.5t-134 -64.5q-133 0 -144 153h35q4 -63 41 -63q31 0 53.5 45 t22.5 106q0 115 -94 287q-49 90 -49 178q0 25 10 58q8 -2 18 -3q86 0 143.5 122t57.5 304q0 170 -77 302.5t-175 132.5q-43 0 -53 -60q-2 -12 -2 -94v-1452h-291v33h113v518h-129z" />
<glyph unicode="&#xe0;" horiz-adv-x="757" d="M39 164q0 106 85 183t206 77q47 0 100 -18v151q-29 10 -51 10q-174 0 -244 -121h-24l8 111q117 43 237 43q188 0 236 -113q16 -39 16 -129v-225q0 -102 33 -102q41 0 102 73l25 -18q-78 -102 -186 -102q-115 0 -148 104q-98 -104 -209 -104q-84 0 -135 49t-51 131z M190 877l43 49l209 -219l-24 -27zM231 100q6 -76 41 -75q35 0 82 34.5t76 79.5v232q-53 18 -106 18q-61 0 -76 -30.5t-15 -161.5q0 -117 -2 -97z" />
<glyph unicode="&#xe1;" horiz-adv-x="757" d="M39 164q0 106 85 183t206 77q47 0 100 -18v151q-29 10 -51 10q-174 0 -244 -121h-24l8 111q117 43 237 43q188 0 236 -113q16 -39 16 -129v-225q0 -102 33 -102q41 0 102 73l25 -18q-78 -102 -186 -102q-115 0 -148 104q-98 -104 -209 -104q-84 0 -135 49t-51 131z M231 100q6 -76 41 -75q35 0 82 34.5t76 79.5v232q-53 18 -106 18q-61 0 -76 -30.5t-15 -161.5q0 -117 -2 -97zM307 702l195 228l51 -45l-219 -207z" />
<glyph unicode="&#xe2;" horiz-adv-x="757" d="M39 164q0 106 85 183t206 77q47 0 100 -18v151q-29 10 -51 10q-174 0 -244 -121h-24l8 111q117 43 237 43q188 0 236 -113q16 -39 16 -129v-225q0 -102 33 -102q41 0 102 73l25 -18q-78 -102 -186 -102q-115 0 -148 104q-98 -104 -209 -104q-84 0 -135 49t-51 131z M170 702l162 201h47l162 -201h-45l-140 142l-141 -142h-45zM231 100q6 -76 41 -75q35 0 82 34.5t76 79.5v232q-53 18 -106 18q-61 0 -76 -30.5t-15 -161.5q0 -117 -2 -97z" />
<glyph unicode="&#xe3;" horiz-adv-x="757" d="M39 164q0 106 85 183t206 77q47 0 100 -18v151q-29 10 -51 10q-174 0 -244 -121h-24l8 111q117 43 237 43q188 0 236 -113q16 -39 16 -129v-225q0 -102 33 -102q41 0 102 73l25 -18q-78 -102 -186 -102q-115 0 -148 104q-98 -104 -209 -104q-84 0 -135 49t-51 131z M145 784q61 80 146 80q43 0 102 -41q39 -25 58 -24q41 0 84 49l32 -27q-55 -68 -116 -67q-35 0 -83.5 32.5t-78.5 32.5q-55 0 -109 -61zM231 100q6 -76 41 -75q35 0 82 34.5t76 79.5v232q-53 18 -106 18q-61 0 -76 -30.5t-15 -161.5q0 -117 -2 -97z" />
<glyph unicode="&#xe4;" horiz-adv-x="757" d="M39 164q0 106 85 183t206 77q47 0 100 -18v151q-29 10 -51 10q-174 0 -244 -121h-24l8 111q117 43 237 43q188 0 236 -113q16 -39 16 -129v-225q0 -102 33 -102q41 0 102 73l25 -18q-78 -102 -186 -102q-115 0 -148 104q-98 -104 -209 -104q-84 0 -135 49t-51 131z M213 750v77h76v-77h-76zM231 100q6 -76 41 -75q35 0 82 34.5t76 79.5v232q-53 18 -106 18q-61 0 -76 -30.5t-15 -161.5q0 -117 -2 -97zM422 750v77h74v-77h-74z" />
<glyph unicode="&#xe5;" horiz-adv-x="757" d="M39 164q0 106 85 183t206 77q47 0 100 -18v151q-29 10 -51 10q-174 0 -244 -121h-24l8 111q117 43 237 43q188 0 236 -113q16 -39 16 -129v-225q0 -102 33 -102q41 0 102 73l25 -18q-78 -102 -186 -102q-115 0 -148 104q-98 -104 -209 -104q-84 0 -135 49t-51 131z M227 809q0 57 41 97t101 40q57 0 97 -41t40 -98t-40 -98t-99 -41q-57 0 -98.5 41t-41.5 100zM231 100q6 -76 41 -75q35 0 82 34.5t76 79.5v232q-53 18 -106 18q-61 0 -76 -30.5t-15 -161.5q0 -117 -2 -97zM268 807q0 -41 29 -69.5t70 -28.5t69.5 28.5t28.5 69.5t-28.5 69.5 t-71.5 28.5q-39 0 -68 -28.5t-29 -69.5z" />
<glyph unicode="&#xe6;" horiz-adv-x="1024" d="M37 162q0 113 86 187.5t215 74.5q39 0 82 -16v149q-29 10 -51 10q-156 0 -234 -121h-26l10 111q121 43 223 43q137 0 209 -74q100 74 184 74q104 0 174 -74.5t78 -195.5h-381q-2 -39 -2 -105q0 -145 32 -177t87 -32q156 0 264 154h19v-72q-125 -115 -287 -114 q-174 0 -266 129q-131 -129 -238 -129q-80 0 -129 49t-49 129zM231 262q0 -178 5 -199q6 -37 34 -36q68 -1 162 118q-6 31 -8 62q-4 98 -4 92v76q-43 16 -90 16q-57 0 -78 -26.5t-21 -102.5zM606 362h271q2 17 2 46q0 158 -142 157q-66 0 -93.5 -39t-35.5 -139z" />
<glyph unicode="&#xe7;" horiz-adv-x="606" d="M53 297q0 129 85 216t212 87q80 0 172 -37v64h33v-242h-33v55q-84 125 -198 125q-43 0 -59.5 -58t-16.5 -210q0 -186 18.5 -232.5t93.5 -46.5q135 0 230 103l22 -21q-104 -117 -237 -116h-13l-16 -68q92 -29 92 -102q0 -51 -40 -84t-105 -33q-23 0 -39 2l8 43 q10 -2 23 -2q100 0 100 70q0 57 -92 69l24 109q-119 18 -191.5 103t-72.5 206z" />
<glyph unicode="&#xe8;" horiz-adv-x="681" d="M55 287q0 131 92.5 222t225.5 91q125 0 196.5 -71.5t75.5 -198.5h-391q-2 -37 -2 -92q0 -131 24.5 -175.5t100.5 -44.5q160 0 268 152h19v-74q-135 -113 -291 -112q-137 0 -227.5 86t-90.5 217zM199 877l43 49l209 -219l-25 -27zM254 362h281q2 15 2 29q0 176 -142 176 q-72 0 -102.5 -36.5t-36.5 -131.5z" />
<glyph unicode="&#xe9;" horiz-adv-x="681" d="M55 287q0 131 92.5 222t225.5 91q125 0 196.5 -71.5t75.5 -198.5h-391q-2 -37 -2 -92q0 -131 24.5 -175.5t100.5 -44.5q160 0 268 152h19v-74q-135 -113 -291 -112q-137 0 -227.5 86t-90.5 217zM254 362h281q2 15 2 29q0 176 -142 176q-72 0 -102.5 -36.5t-36.5 -131.5z M340 702l195 228l51 -45l-219 -207z" />
<glyph unicode="&#xea;" horiz-adv-x="681" d="M55 287q0 131 92.5 222t225.5 91q125 0 196.5 -71.5t75.5 -198.5h-391q-2 -37 -2 -92q0 -131 24.5 -175.5t100.5 -44.5q160 0 268 152h19v-74q-135 -113 -291 -112q-137 0 -227.5 86t-90.5 217zM203 702l162 201h47l161 -201h-45l-139 142l-141 -142h-45zM254 362h281 q2 15 2 29q0 176 -142 176q-72 0 -102.5 -36.5t-36.5 -131.5z" />
<glyph unicode="&#xeb;" horiz-adv-x="681" d="M55 287q0 131 92.5 222t225.5 91q125 0 196.5 -71.5t75.5 -198.5h-391q-2 -37 -2 -92q0 -131 24.5 -175.5t100.5 -44.5q160 0 268 152h19v-74q-135 -113 -291 -112q-137 0 -227.5 86t-90.5 217zM246 750v77h76v-77h-76zM254 362h281q2 15 2 29q0 176 -142 176 q-72 0 -102.5 -36.5t-36.5 -131.5zM455 750v77h73v-77h-73z" />
<glyph unicode="&#xec;" horiz-adv-x="454" d="M25 0v33h112v518h-112v33h337v-33h-47v-518h115v-33h-405zM39 877l43 49l209 -219l-25 -27z" />
<glyph unicode="&#xed;" horiz-adv-x="454" d="M25 0v33h112v518h-112v33h337v-33h-47v-518h115v-33h-405zM180 702l195 228l51 -45l-219 -207z" />
<glyph unicode="&#xee;" horiz-adv-x="454" d="M25 0v33h112v518h-112v33h337v-33h-47v-518h115v-33h-405zM37 702l162 201h47l162 -201h-46l-139 142l-141 -142h-45z" />
<glyph unicode="&#xef;" horiz-adv-x="454" d="M25 0v33h112v518h-112v33h337v-33h-47v-518h115v-33h-405zM86 750v77h76v-77h-76zM293 750v77h76v-77h-76z" />
<glyph unicode="&#xf0;" horiz-adv-x="757" d="M55 289q0 135 90.5 223t229.5 88q63 0 121 -37q-20 233 -52 385l-184 -98l-14 29l192 102q-27 129 -59 209l31 4q6 -8 22 -43q4 -8 33 -68l35 -71l188 100l14 -29l-188 -100q188 -371 188 -680q0 -150 -86 -234.5t-235 -84.5q-150 0 -238 83t-88 222zM250 303 q0 -150 6 -178q20 -106 111 -107q82 0 109.5 47.5t27.5 186.5q0 225 -24.5 270t-106.5 45q-72 0 -97.5 -54t-25.5 -210z" />
<glyph unicode="&#xf1;" horiz-adv-x="833" d="M25 0v33h112v518h-112v33h290v-140q92 156 207 156q86 0 139.5 -69.5t53.5 -180.5v-317h112v-33h-292v471q0 90 -39 90q-94 0 -181 -196v-332h115v-33h-405zM207 784q61 80 145 80q43 0 103 -41q39 -25 57 -24q41 0 84 49l33 -27q-55 -68 -117 -67q-35 0 -83 32.5 t-79 32.5q-55 0 -108 -61z" />
<glyph unicode="&#xf2;" horiz-adv-x="757" d="M55 287q0 139 90.5 226t235.5 87q139 0 230 -88t91 -221q0 -139 -88 -223t-233 -84q-150 0 -238 81.5t-88 221.5zM213 877l43 49l209 -219l-25 -27zM250 301q0 -150 6 -180q20 -102 111 -103q80 0 108.5 45t28.5 168q0 248 -25.5 292t-105.5 44q-74 0 -98.5 -54 t-24.5 -212z" />
<glyph unicode="&#xf3;" horiz-adv-x="757" d="M55 287q0 139 90.5 226t235.5 87q139 0 230 -88t91 -221q0 -139 -88 -223t-233 -84q-150 0 -238 81.5t-88 221.5zM250 301q0 -150 6 -180q20 -102 111 -103q80 0 108.5 45t28.5 168q0 248 -25.5 292t-105.5 44q-74 0 -98.5 -54t-24.5 -212zM332 702l194 228l52 -45 l-220 -207z" />
<glyph unicode="&#xf4;" horiz-adv-x="757" d="M55 287q0 139 90.5 226t235.5 87q139 0 230 -88t91 -221q0 -139 -88 -223t-233 -84q-150 0 -238 81.5t-88 221.5zM193 702l161 201h47l162 -201h-45l-139 142l-141 -142h-45zM250 301q0 -150 6 -180q20 -102 111 -103q80 0 108.5 45t28.5 168q0 248 -25.5 292t-105.5 44 q-74 0 -98.5 -54t-24.5 -212z" />
<glyph unicode="&#xf5;" horiz-adv-x="757" d="M55 287q0 139 90.5 226t235.5 87q139 0 230 -88t91 -221q0 -139 -88 -223t-233 -84q-150 0 -238 81.5t-88 221.5zM180 784q61 80 146 80q43 0 102 -41q39 -25 57 -24q41 0 84 49l33 -27q-55 -68 -117 -67q-35 0 -83 32.5t-78 32.5q-55 0 -109 -61zM250 301q0 -150 6 -180 q20 -102 111 -103q80 0 108.5 45t28.5 168q0 248 -25.5 292t-105.5 44q-74 0 -98.5 -54t-24.5 -212z" />
<glyph unicode="&#xf6;" horiz-adv-x="757" d="M55 287q0 139 90.5 226t235.5 87q139 0 230 -88t91 -221q0 -139 -88 -223t-233 -84q-150 0 -238 81.5t-88 221.5zM238 750v77h75v-77h-75zM250 301q0 -150 6 -180q20 -102 111 -103q80 0 108.5 45t28.5 168q0 248 -25.5 292t-105.5 44q-74 0 -98.5 -54t-24.5 -212z M446 750v77h74v-77h-74z" />
<glyph unicode="&#xf7;" d="M63 522v56h820v-56h-820zM432 233v86h84v-86h-84zM432 778v86h84v-86h-84z" />
<glyph unicode="&#xf8;" horiz-adv-x="757" d="M55 289q0 135 90.5 223t227.5 88q57 0 106 -14l35 88h33l-39 -99q194 -79 194 -282q0 -139 -87 -224t-232 -85q-55 0 -109 12l-36 -90h-33l39 98q-188 78 -189 285zM250 305q0 -176 20 -235l191 471q-47 25 -86 24q-74 0 -99.5 -52t-25.5 -208zM291 39q35 -20 76 -21 q86 0 111.5 48t25.5 210q0 178 -21 238z" />
<glyph unicode="&#xf9;" horiz-adv-x="833" d="M8 551v33h291v-439q0 -70 2 -77q6 -45 45 -45q45 0 95.5 39.5t76.5 95.5v393h-112v33h292v-551h113v-33h-291v96q-63 -66 -96 -84q-47 -29 -119 -28q-111 0 -155 59q-29 39 -29 162v346h-113zM229 877l43 49l209 -219l-24 -27z" />
<glyph unicode="&#xfa;" horiz-adv-x="833" d="M8 551v33h291v-439q0 -70 2 -77q6 -45 45 -45q45 0 95.5 39.5t76.5 95.5v393h-112v33h292v-551h113v-33h-291v96q-63 -66 -96 -84q-47 -29 -119 -28q-111 0 -155 59q-29 39 -29 162v346h-113zM371 702l194 228l51 -45l-219 -207z" />
<glyph unicode="&#xfb;" horiz-adv-x="833" d="M8 551v33h291v-439q0 -70 2 -77q6 -45 45 -45q45 0 95.5 39.5t76.5 95.5v393h-112v33h292v-551h113v-33h-291v96q-63 -66 -96 -84q-47 -29 -119 -28q-111 0 -155 59q-29 39 -29 162v346h-113zM209 702l162 201h47l162 -201h-45l-140 142l-141 -142h-45z" />
<glyph unicode="&#xfc;" horiz-adv-x="833" d="M8 551v33h291v-439q0 -70 2 -77q6 -45 45 -45q45 0 95.5 39.5t76.5 95.5v393h-112v33h292v-551h113v-33h-291v96q-63 -66 -96 -84q-47 -29 -119 -28q-111 0 -155 59q-29 39 -29 162v346h-113zM254 750v77h76v-77h-76zM463 750v77h74v-77h-74z" />
<glyph unicode="&#xfd;" horiz-adv-x="833" d="M25 551v33h290v-414q0 -94 9.5 -116.5t48.5 -22.5q96 0 168 139v381h-115v33h293v-459q0 -166 20 -213q-123 -223 -340 -223q-135 0 -223 80l51 75l15 -10q16 -41 73.5 -77t110.5 -36q70 0 96 56q16 35 17 160v161q-88 -106 -209 -106t-166 74q-27 43 -27 176v309h-112z M369 702l194 228l51 -45l-219 -207z" />
<glyph unicode="&#xfe;" horiz-adv-x="833" d="M25 -258h112v1827h-112v33h290v-1090q88 88 183 88q113 0 193.5 -89t80.5 -212q0 -129 -87 -222t-208 -93q-94 0 -162 73v-315h115v-33h-405v33zM315 109q68 -90 154 -91q59 0 81.5 61.5t22.5 233.5q0 252 -98 252q-76 0 -160 -102v-354z" />
<glyph unicode="&#xff;" horiz-adv-x="833" d="M25 551v33h290v-414q0 -94 9.5 -116.5t48.5 -22.5q96 0 168 139v381h-115v33h293v-459q0 -166 20 -213q-123 -223 -340 -223q-135 0 -223 80l51 75l15 -10q16 -41 73.5 -77t110.5 -36q70 0 96 56q16 35 17 160v161q-88 -106 -209 -106t-166 74q-27 43 -27 176v309h-112z M274 750v77h76v-77h-76zM483 750v77h74v-77h-74z" />
<glyph unicode="&#x152;" horiz-adv-x="1744" d="M66 793q0 256 117.5 463.5t314.5 299.5q92 43 196 56q57 6 203 6h784v45h33l4 -254h-32v66q-166 111 -482 110h-28v-1010h28q168 0 301 41v80h33v-288h-33v77q-143 57 -301 58h-28v-510h45q307 0 465 108v72h32v-262h-32v49h-789q-213 0 -322.5 24.5t-199.5 94.5 q-145 111 -227 288t-82 386zM322 840q0 -659 270 -768q96 -39 305 -39h70v1552h-99q-129 0 -192 -12q-100 -18 -174 -78q-180 -143 -180 -655z" />
<glyph unicode="&#x153;" horiz-adv-x="1099" d="M55 291q0 133 89 221t227 88q109 0 213 -82q104 82 215 82q115 0 186.5 -73.5t79.5 -198.5h-381q-2 -35 -2 -76q0 -143 23.5 -188.5t99.5 -45.5q147 0 258 152h18v-74q-139 -113 -276 -112q-123 0 -221 75q-104 -76 -213 -75q-139 0 -227.5 85t-88.5 222zM250 311 q0 -174 22.5 -233.5t87.5 -59.5q72 0 99.5 63.5t27.5 223.5q0 152 -25.5 207t-94.5 55q-66 0 -91.5 -55t-25.5 -201zM684 360h268q2 20 2 43q0 164 -141 164q-66 0 -92.5 -40t-34.5 -142z" />
<glyph unicode="&#x178;" horiz-adv-x="1251" d="M-29 1585v33h539v-33h-164l387 -926q72 164 154 479.5t88 446.5h-139v33h444v-33h-131q-106 -227 -408 -987v-565h185v-33h-557v33h163v545l-417 1007h-144zM563 1765v80h78v-80h-78zM772 1765v80h78v-80h-78z" />
<glyph unicode="&#x2c6;" horiz-adv-x="1024" d="M328 702l161 201h48l161 -201h-45l-139 142l-141 -142h-45z" />
<glyph unicode="&#x2dc;" horiz-adv-x="1024" d="M301 784q61 80 145 80q43 0 103 -41q39 -25 57 -24q41 0 84 49l33 -27q-55 -68 -117 -67q-35 0 -83 32.5t-79 32.5q-55 0 -108 -61z" />
<glyph unicode="&#x2000;" horiz-adv-x="977" />
<glyph unicode="&#x2001;" horiz-adv-x="1954" />
<glyph unicode="&#x2002;" horiz-adv-x="977" />
<glyph unicode="&#x2003;" horiz-adv-x="1954" />
<glyph unicode="&#x2004;" horiz-adv-x="651" />
<glyph unicode="&#x2005;" horiz-adv-x="488" />
<glyph unicode="&#x2006;" horiz-adv-x="325" />
<glyph unicode="&#x2007;" horiz-adv-x="325" />
<glyph unicode="&#x2008;" horiz-adv-x="244" />
<glyph unicode="&#x2009;" horiz-adv-x="390" />
<glyph unicode="&#x200a;" horiz-adv-x="108" />
<glyph unicode="&#x2010;" horiz-adv-x="681" d="M41 274v56h600v-56h-600z" />
<glyph unicode="&#x2011;" horiz-adv-x="681" d="M41 274v56h600v-56h-600z" />
<glyph unicode="&#x2012;" horiz-adv-x="681" d="M41 274v56h600v-56h-600z" />
<glyph unicode="&#x2013;" horiz-adv-x="909" d="M43 274v56h825v-56h-825z" />
<glyph unicode="&#x2014;" horiz-adv-x="1251" d="M45 274v56h1161v-56h-1161z" />
<glyph unicode="&#x2018;" horiz-adv-x="378" d="M61 1417q0 88 64.5 159t146.5 71q18 0 43 -9q-100 -18 -137 -118h10q59 0 94 -33t35 -86q0 -51 -34.5 -87t-87.5 -36t-93.5 41t-40.5 98z" />
<glyph unicode="&#x2019;" horiz-adv-x="378" d="M61 1518q0 53 35 88.5t88 35.5q55 0 94 -41t39 -98q0 -90 -64.5 -160.5t-146.5 -70.5q-18 0 -43 8q100 23 138 121q-8 -2 -19 -2q-51 0 -86 33.5t-35 85.5z" />
<glyph unicode="&#x201a;" horiz-adv-x="378" d="M61 106q0 53 35 89t88 36q55 0 94 -41t39 -98q0 -90 -64.5 -160.5t-146.5 -70.5q-16 0 -43 8q100 20 138 119h-17q-53 0 -88 33.5t-35 84.5z" />
<glyph unicode="&#x201c;" horiz-adv-x="720" d="M61 1417q0 88 64.5 159t146.5 71q18 0 43 -9q-100 -18 -137 -118h10q59 0 94 -33t35 -86q0 -51 -34.5 -87t-87.5 -36t-93.5 41t-40.5 98zM403 1417q0 88 64.5 159t146.5 71q16 0 43 -9q-100 -20 -137 -118h8q59 0 95 -33t36 -86q0 -51 -34.5 -87t-87.5 -36t-93.5 41 t-40.5 98z" />
<glyph unicode="&#x201d;" horiz-adv-x="720" d="M61 1518q0 53 35 88.5t88 35.5q55 0 94 -41t39 -98q0 -90 -64.5 -160.5t-146.5 -70.5q-18 0 -43 8q100 23 138 121q-8 -2 -19 -2q-51 0 -86 33.5t-35 85.5zM403 1518q0 53 35 88.5t88 35.5t93 -41t40 -98q0 -90 -64.5 -160.5t-145.5 -70.5q-18 0 -43 8q100 23 137 121 q-8 -2 -19 -2q-51 0 -86 33.5t-35 85.5z" />
<glyph unicode="&#x201e;" horiz-adv-x="720" d="M61 106q0 53 35 89t88 36q55 0 94 -41t39 -98q0 -90 -64.5 -160.5t-146.5 -70.5q-16 0 -43 8q100 20 138 119h-17q-53 0 -88 33.5t-35 84.5zM403 106q0 53 35 89t88 36t93 -41t40 -98q0 -88 -65.5 -159.5t-144.5 -71.5q-16 0 -43 8q100 20 137 119h-17q-53 0 -88 33.5 t-35 84.5z" />
<glyph unicode="&#x2022;" horiz-adv-x="1617" d="M475 821q0 141 98.5 238.5t241.5 97.5q137 0 234.5 -98.5t97.5 -237.5t-98.5 -237.5t-237.5 -98.5q-137 0 -236.5 99.5t-99.5 236.5z" />
<glyph unicode="&#x2026;" horiz-adv-x="1138" d="M63 106q0 51 37 88t90 37q51 0 88 -38t37 -89t-37.5 -87.5t-89.5 -36.5q-51 0 -88 36.5t-37 89.5zM442 106q0 51 37 88t90 37q51 0 88 -38t37 -89t-38 -87.5t-89 -36.5t-88 36.5t-37 89.5zM821 106q0 51 37 88t90 37q51 0 88 -38t37 -89t-37 -87.5t-90 -36.5 q-51 0 -88 36.5t-37 89.5z" />
<glyph unicode="&#x202f;" horiz-adv-x="390" />
<glyph unicode="&#x2039;" horiz-adv-x="569" d="M37 575l475 383l20 -24l-335 -270l315 -390l-139 -114z" />
<glyph unicode="&#x203a;" horiz-adv-x="569" d="M37 182l336 273l-316 387l140 114l335 -413l-475 -385z" />
<glyph unicode="&#x205f;" horiz-adv-x="488" />
<glyph unicode="&#x2122;" horiz-adv-x="1474" d="M61 1483v143h29v-24h393v24h29v-143h-29v51q-47 29 -127 39v-680h84v-29h-303v29h84v680q-59 -4 -131 -39v-51h-29zM549 1573v29h211l250 -412l178 412h237v-29h-82v-680h82v-29h-297v29h80v684l-237 -565l-260 424v-142q0 -279 28 -401h78v-29h-235v29h77q20 133 21 401 v193l-51 86h-80z" />
<glyph unicode="&#xe000;" horiz-adv-x="583" d="M0 0v584h584v-584h-584z" />
</font>
</defs>
</svg>
